# xmcd
# 
# Track frame offsets:
#     150
#     19644
#     38553
#     54344
#     76334
#     91953
#     109526
#     123986
#     146217
#     161303
#     176471
# 
# Disc length: 2756
# 
# Revision: 3
# Processed by: cddbd v1.5.2PL0 Copyright (c) Steve Scherf et al.
# Submitted via: fre:ac v1.0.17
# 
DISCID=7b0ac20b
DTITLE=Lovebugs - In Every Waking Moment
DYEAR=2006
DGENRE=Pop
TTITLE0=Tonight
TTITLE1=The Key
TTITLE2=Back To Life
TTITLE3=A Wonderful Thing
TTITLE4=Avalon (Featuring Lene Marlin)
TTITLE5=Wide Awake
TTITLE6=Listen To The Silence
TTITLE7=Not Alone
TTITLE8=Broken Smile
TTITLE9=Weather In Me
TTITLE10=Borrowed Tune
EXTD=
EXTT0=
EXTT1=
EXTT2=
EXTT3=
EXTT4=
EXTT5=
EXTT6=
EXTT7=
EXTT8=
EXTT9=
EXTT10=
PLAYORDER=
